HIERARCHY
ROOT __0
{
	OFFSET 0.0 0.0 0.0
	CHANNELS 0
	JOINT Root
	{
		OFFSET 0.000000 0.000000 0.000000
		CHANNELS 6 Xposition Yposition Zposition Xrotation Yrotation Zrotation
		JOINT LegFront0.R
		{
			OFFSET -0.418178 -0.418153 0.176516
			CHANNELS 6 Xposition Yposition Zposition Xrotation Yrotation Zrotation
			JOINT LegFront1.R
			{
				OFFSET -0.323942 0.000000 0.000000
				CHANNELS 3 Xrotation Yrotation Zrotation
				JOINT LegFront2.R
				{
					OFFSET -0.647048 0.000000 -0.000230
					CHANNELS 3 Xrotation Yrotation Zrotation
					End Site
					{
						OFFSET -0.000003 0.000000 -0.916380
					}
				}
			}
		}
		JOINT LegFront0.L
		{
			OFFSET 0.418178 -0.418153 0.176516
			CHANNELS 6 Xposition Yposition Zposition Xrotation Yrotation Zrotation
			JOINT LegFront1.L
			{
				OFFSET 0.323942 0.000000 0.000000
				CHANNELS 3 Xrotation Yrotation Zrotation
				JOINT LegFront2.L
				{
					OFFSET 0.647048 0.000000 -0.000230
					CHANNELS 3 Xrotation Yrotation Zrotation
					End Site
					{
						OFFSET 0.000003 0.000000 -0.916380
					}
				}
			}
		}
		JOINT LegBack0.R
		{
			OFFSET -0.418178 0.418206 0.176516
			CHANNELS 6 Xposition Yposition Zposition Xrotation Yrotation Zrotation
			JOINT LegBack1.R
			{
				OFFSET -0.323942 0.000000 0.000000
				CHANNELS 3 Xrotation Yrotation Zrotation
				JOINT LegBack2.R
				{
					OFFSET -0.647048 0.000000 -0.000230
					CHANNELS 3 Xrotation Yrotation Zrotation
					End Site
					{
						OFFSET -0.000003 0.000000 -0.916380
					}
				}
			}
		}
		JOINT LegBack0.L
		{
			OFFSET 0.418178 0.418206 0.176516
			CHANNELS 6 Xposition Yposition Zposition Xrotation Yrotation Zrotation
			JOINT LegBack1.L
			{
				OFFSET 0.323942 0.000000 0.000000
				CHANNELS 3 Xrotation Yrotation Zrotation
				JOINT LegBack2.L
				{
					OFFSET 0.647048 0.000000 -0.000230
					CHANNELS 3 Xrotation Yrotation Zrotation
					End Site
					{
						OFFSET 0.000003 0.000000 -0.916380
					}
				}
			}
		}
	}
	JOINT LegFrontIK.L
	{
		OFFSET 1.389170 -0.418153 -0.740094
		CHANNELS 6 Xposition Yposition Zposition Xrotation Yrotation Zrotation
		End Site
		{
			OFFSET 0.000000 0.000000 -0.259647
		}
	}
	JOINT LegFrontIK.R
	{
		OFFSET -1.389170 -0.418153 -0.740094
		CHANNELS 6 Xposition Yposition Zposition Xrotation Yrotation Zrotation
		End Site
		{
			OFFSET 0.000000 0.000000 -0.259647
		}
	}
	JOINT LegBackIK.L
	{
		OFFSET 1.389170 0.418206 -0.740094
		CHANNELS 6 Xposition Yposition Zposition Xrotation Yrotation Zrotation
		End Site
		{
			OFFSET 0.000000 0.000000 -0.259647
		}
	}
	JOINT LegBackIK.R
	{
		OFFSET -1.389170 0.418206 -0.740094
		CHANNELS 6 Xposition Yposition Zposition Xrotation Yrotation Zrotation
		End Site
		{
			OFFSET 0.000000 0.000000 -0.259647
		}
	}
}
MOTION
Frames: 6
Frame Time: 0.100000
0.000000 0.000000 -0.228058 -0.000000 0.000000 -0.000000 -0.418178 -0.418153 0.176516 0.000023 -0.000012 32.009040 0.001401 20.634797 -0.007683 0.000056 -20.991207 0.000012 0.418178 -0.418153 0.176516 0.000023 0.000012 -32.009053 0.001402 -20.640074 0.007685 0.000056 20.998855 -0.000008 -0.418178 0.418206 0.176516 -0.000013 0.000022 -32.001550 0.001401 20.634743 -0.007681 0.000055 -20.991181 0.000011 0.418178 0.418206 0.176516 -0.000013 -0.000022 32.001550 0.001401 -20.634743 0.007681 0.000055 20.991181 -0.000011 1.201612 -0.907798 -0.740094 -0.000000 0.000000 -0.000000 -1.201612 -0.907798 -0.740094 -0.000000 0.000000 -0.000000 1.201612 0.907851 -0.740094 -0.000000 0.000000 -0.000000 -1.201612 0.907851 -0.740094 -0.000000 0.000000 -0.000000 
0.000000 0.000000 -0.228058 -0.000000 0.000000 -1.250000 -0.418178 -0.418153 0.176516 0.000025 -0.000012 34.042882 0.001399 20.632845 -0.007682 0.000056 -21.157127 0.000012 0.418178 -0.418153 0.176516 0.000021 0.000011 -29.984028 0.001401 -20.642316 0.007686 0.000057 20.805714 -0.000007 -0.418178 0.418206 0.176516 -0.000013 0.000020 -29.976464 0.001402 20.636080 -0.007683 0.000057 -20.796883 0.000011 0.418178 0.418206 0.176516 -0.000014 -0.000024 34.035454 0.001400 -20.632793 0.007682 0.000057 21.157160 -0.000014 1.201612 -0.907798 -0.740094 -0.000000 0.000000 -0.000000 -1.201612 -0.907798 -0.740094 -0.000000 0.000000 -0.000000 1.201612 0.907851 -0.740094 -0.000000 0.000000 -0.000000 -1.201612 0.907851 -0.740094 -0.000000 0.000000 -0.000000 
0.000000 0.000000 -0.228058 -0.000000 0.000000 -1.250000 -0.418178 -0.418153 0.176516 0.000025 -0.000012 34.042882 0.001399 20.632845 -0.007682 0.000056 -21.157127 0.000012 0.418178 -0.418153 0.176516 0.000021 0.000011 -29.984028 0.001401 -20.642316 0.007686 0.000057 20.805714 -0.000007 -0.418178 0.418206 0.176516 -0.000013 0.000020 -29.976464 0.001402 20.636080 -0.007683 0.000057 -20.796883 0.000011 0.418178 0.418206 0.176516 -0.000014 -0.000024 34.035454 0.001400 -20.632793 0.007682 0.000057 21.157160 -0.000014 1.201612 -0.907798 -0.740094 -0.000000 0.000000 -0.000000 -1.201612 -0.907798 -0.740094 -0.000000 0.000000 -0.000000 1.201612 0.907851 -0.740094 -0.000000 0.000000 -0.000000 -1.201612 0.907851 -0.740094 -0.000000 0.000000 -0.000000 
0.000000 0.000000 -0.228058 -0.000000 0.000000 -3.750001 -0.418178 -0.418153 0.176516 0.000028 -0.000012 38.131788 0.001399 20.628544 -0.007675 0.000057 -21.403943 0.000011 0.418178 -0.418153 0.176516 0.000018 0.000011 -25.965341 0.001403 -20.642993 0.007684 0.000056 20.334672 -0.000010 -0.418178 0.418206 0.176516 -0.000015 0.000037 -50.578326 -0.127422 100.990801 0.105065 0.000218 -54.543039 0.000108 0.418178 0.418206 0.176516 -0.000014 -0.000027 38.124470 0.001401 -20.628481 0.007678 0.000058 21.404087 -0.000015 1.201612 -0.907798 -0.740094 -0.000000 0.000000 -0.000000 -1.201612 -0.907798 -0.740094 -0.000000 0.000000 -0.000000 1.201612 0.907851 -0.740094 -0.000000 0.000000 -0.000000 -0.894163 1.147441 -0.047702 -0.000000 0.000000 -14.999999 
0.000000 0.000000 -0.228058 -0.000000 0.000000 -3.750001 -0.418178 -0.418153 0.176516 0.000028 -0.000012 38.131788 0.001399 20.628544 -0.007675 0.000057 -21.403943 0.000011 0.418178 -0.418153 0.176516 0.000018 0.000011 -25.965341 0.001403 -20.642993 0.007684 0.000056 20.334672 -0.000010 -0.418178 0.418206 0.176516 -0.000015 0.000037 -50.578326 -0.127422 100.990801 0.105065 0.000218 -54.543039 0.000108 0.418178 0.418206 0.176516 -0.000014 -0.000027 38.124470 0.001401 -20.628481 0.007678 0.000058 21.404087 -0.000015 1.201612 -0.907798 -0.740094 -0.000000 0.000000 -0.000000 -1.201612 -0.907798 -0.740094 -0.000000 0.000000 -0.000000 1.201612 0.907851 -0.740094 -0.000000 0.000000 -0.000000 -0.894163 1.147441 -0.047702 -0.000000 0.000000 -14.999999 
0.000000 0.000000 -0.228058 -0.000000 0.000000 -6.250000 -0.418178 -0.418153 0.176516 0.000031 -0.000013 42.239836 0.001399 20.625510 -0.007673 0.000056 -21.537123 0.000010 0.418178 -0.418153 0.176516 0.000015 0.000009 -21.996025 0.001401 -20.635253 0.007679 0.000053 19.751003 -0.000009 -0.418178 0.418206 0.176516 -0.000011 0.000053 -70.580805 0.001398 20.613381 -0.007672 0.000051 -19.292322 0.000008 0.418178 0.418206 0.176516 -0.000015 -0.000030 42.232644 0.001400 -20.625440 0.007675 0.000056 21.537367 -0.000014 1.201612 -0.907798 -0.740094 -0.000000 0.000000 -0.000000 -1.201612 -0.907798 -0.740094 -0.000000 0.000000 -0.000000 1.201612 0.907851 -0.740094 -0.000000 0.000000 -0.000000 -0.586715 1.387032 -0.740094 -0.000000 0.000000 -29.999997 
